<svg width="70" height="70" viewBox="0 0 70 70" fill="none" xmlns="http://www.w3.org/2000/svg">
<g clip-path="url(#clip0)">
<path d="M6.56256 32.8127H2.18752C0.98001 32.8127 0 33.7928 0 35.0003V65.6256C0 66.8331 0.98001 67.8131 2.18752 67.8131H6.56256C7.77008 67.8131 8.75009 66.8331 8.75009 65.6256V35.0003C8.75009 33.7928 7.77008 32.8127 6.56256 32.8127Z" fill="#00B976"/>
<path d="M68.618 37.5335C66.3955 34.6679 62.2655 34.156 59.4129 36.3829L43.2778 48.9305C42.1228 49.8274 40.7053 50.313 39.2484 50.313H24.0626C30.1045 50.313 35.0002 45.4173 35.0002 39.3754C35.0002 38.1679 34.0202 37.1879 32.8127 37.1879H13.125V50.313V63.4381H42.2453C44.6778 63.4381 47.0403 62.6287 48.961 61.1325L67.4674 46.7386C70.3287 44.5161 70.8405 40.3948 68.618 37.5335Z" fill="#00B976"/>
<path d="M37.1876 2.1875C33.5694 2.1875 30.625 5.1319 30.625 8.75006C30.625 12.3682 33.5694 15.3126 37.1876 15.3126C40.8057 15.3126 43.7501 12.3682 43.7501 8.75006C43.7501 5.1319 40.8057 2.1875 37.1876 2.1875ZM37.1876 10.9376C35.9801 10.9376 35 9.95758 35 8.75006C35 7.54255 35.9801 6.56254 37.1876 6.56254C38.3951 6.56254 39.3751 7.54255 39.3751 8.75006C39.3751 9.95758 38.3951 10.9376 37.1876 10.9376Z" fill="#00B976"/>
<path d="M50.3126 19.6877C46.6944 19.6877 43.75 22.6321 43.75 26.2503C43.75 29.8685 46.6944 32.8129 50.3126 32.8129C53.9307 32.8129 56.8751 29.8685 56.8751 26.2503C56.8751 22.6321 53.9307 19.6877 50.3126 19.6877ZM50.3126 28.4378C49.1094 28.4378 48.125 27.4578 48.125 26.2503C48.125 25.0428 49.1094 24.0628 50.3126 24.0628C51.5157 24.0628 52.5001 25.0428 52.5001 26.2503C52.5001 27.4578 51.5157 28.4378 50.3126 28.4378Z" fill="#00B976"/>
<path d="M56.0967 2.6907C55.1736 1.92507 53.7955 2.04319 53.0167 2.9707L31.1415 29.221C30.3584 30.1528 30.4852 31.5354 31.4127 32.3054C31.8196 32.6466 32.3184 32.8129 32.8127 32.8129C33.4428 32.8129 34.064 32.546 34.4971 32.0254L56.3724 5.77511C57.1467 4.8476 57.0199 3.46508 56.0967 2.6907Z" fill="#00B976"/>
</g>
<defs>
<clipPath id="clip0">
<rect width="70" height="70" fill="white"/>
</clipPath>
</defs>
</svg>
