<svg width="272" height="200" viewBox="0 0 272 200" fill="none" xmlns="http://www.w3.org/2000/svg">
<g filter="url(#filter0_d)">
<rect x="10" y="6" width="252" height="180" fill="white"/>
</g>
<path d="M148.904 64.3528C148.904 63.5224 148.131 62.8495 147.177 62.8495H115.727C114.773 62.8495 114 63.5224 114 64.3528V100.094C114 101.847 115.633 103.269 117.647 103.269H150.039C149.324 102.365 148.904 101.272 148.904 100.094V64.3528ZM143.093 99.4302H119.811C119.037 99.4302 118.41 98.8844 118.41 98.2112C118.41 97.5381 119.037 96.9925 119.811 96.9925H143.093C143.866 96.9925 144.494 97.5381 144.494 98.2112C144.494 98.8844 143.866 99.4302 143.093 99.4302ZM143.093 94.2298H119.811C119.037 94.2298 118.41 93.6843 118.41 93.0111C118.41 92.338 119.037 91.7925 119.811 91.7925H143.093C143.866 91.7925 144.494 92.338 144.494 93.0111C144.494 93.6843 143.866 94.2298 143.093 94.2298ZM143.093 89.0297H119.811C119.037 89.0297 118.41 88.4839 118.41 87.811C118.41 87.1379 119.037 86.5921 119.811 86.5921H143.093C143.866 86.5921 144.494 87.1379 144.494 87.811C144.494 88.4839 143.866 89.0297 143.093 89.0297ZM143.093 83.8296H119.811C119.037 83.8296 118.41 83.2838 118.41 82.6106C118.41 81.9378 119.037 81.392 119.811 81.392H143.093C143.866 81.392 144.494 81.9378 144.494 82.6106C144.494 83.2838 143.866 83.8296 143.093 83.8296ZM144.494 77.4106C144.494 78.0837 143.866 78.6292 143.093 78.6292H119.811C119.037 78.6292 118.41 78.0837 118.41 77.4106V67.9068C118.41 67.2336 119.037 66.6878 119.811 66.6878H143.093C143.866 66.6878 144.494 67.2336 144.494 67.9068V77.4106Z" fill="black"/>
<path d="M157.273 73.8774H151.705V100.094C151.705 101.87 153.389 103.31 155.441 103.268C157.432 103.227 159 101.768 159 100.035V75.3805C159 74.5503 158.227 73.8774 157.273 73.8774Z" fill="black"/>
<path d="M121.211 69.1255H141.692V76.1919H121.211V69.1255Z" fill="black"/>
<path d="M103.094 129H100.832V121.113H92.2305V129H89.9805V111.938H92.2305V119.273H100.832V111.938H103.094V129ZM106.176 122.543C106.176 121.301 106.418 120.184 106.902 119.191C107.395 118.199 108.074 117.434 108.941 116.895C109.816 116.355 110.812 116.086 111.93 116.086C113.656 116.086 115.051 116.684 116.113 117.879C117.184 119.074 117.719 120.664 117.719 122.648V122.801C117.719 124.035 117.48 125.145 117.004 126.129C116.535 127.105 115.859 127.867 114.977 128.414C114.102 128.961 113.094 129.234 111.953 129.234C110.234 129.234 108.84 128.637 107.77 127.441C106.707 126.246 106.176 124.664 106.176 122.695V122.543ZM108.355 122.801C108.355 124.207 108.68 125.336 109.328 126.188C109.984 127.039 110.859 127.465 111.953 127.465C113.055 127.465 113.93 127.035 114.578 126.176C115.227 125.309 115.551 124.098 115.551 122.543C115.551 121.152 115.219 120.027 114.555 119.168C113.898 118.301 113.023 117.867 111.93 117.867C110.859 117.867 109.996 118.293 109.34 119.145C108.684 119.996 108.355 121.215 108.355 122.801ZM120.637 129V116.32H125.582C127.27 116.32 128.562 116.617 129.461 117.211C130.367 117.797 130.82 118.66 130.82 119.801C130.82 120.387 130.645 120.918 130.293 121.395C129.941 121.863 129.422 122.223 128.734 122.473C129.5 122.652 130.113 123.004 130.574 123.527C131.043 124.051 131.277 124.676 131.277 125.402C131.277 126.566 130.848 127.457 129.988 128.074C129.137 128.691 127.93 129 126.367 129H120.637ZM122.805 123.434V127.254H126.391C127.297 127.254 127.973 127.086 128.418 126.75C128.871 126.414 129.098 125.941 129.098 125.332C129.098 124.066 128.168 123.434 126.309 123.434H122.805ZM122.805 121.699H125.605C127.637 121.699 128.652 121.105 128.652 119.918C128.652 118.73 127.691 118.117 125.77 118.078H122.805V121.699ZM133.574 122.543C133.574 121.301 133.816 120.184 134.301 119.191C134.793 118.199 135.473 117.434 136.34 116.895C137.215 116.355 138.211 116.086 139.328 116.086C141.055 116.086 142.449 116.684 143.512 117.879C144.582 119.074 145.117 120.664 145.117 122.648V122.801C145.117 124.035 144.879 125.145 144.402 126.129C143.934 127.105 143.258 127.867 142.375 128.414C141.5 128.961 140.492 129.234 139.352 129.234C137.633 129.234 136.238 128.637 135.168 127.441C134.105 126.246 133.574 124.664 133.574 122.695V122.543ZM135.754 122.801C135.754 124.207 136.078 125.336 136.727 126.188C137.383 127.039 138.258 127.465 139.352 127.465C140.453 127.465 141.328 127.035 141.977 126.176C142.625 125.309 142.949 124.098 142.949 122.543C142.949 121.152 142.617 120.027 141.953 119.168C141.297 118.301 140.422 117.867 139.328 117.867C138.258 117.867 137.395 118.293 136.738 119.145C136.082 119.996 135.754 121.215 135.754 122.801ZM152.922 127.465C153.695 127.465 154.371 127.23 154.949 126.762C155.527 126.293 155.848 125.707 155.91 125.004H157.961C157.922 125.73 157.672 126.422 157.211 127.078C156.75 127.734 156.133 128.258 155.359 128.648C154.594 129.039 153.781 129.234 152.922 129.234C151.195 129.234 149.82 128.66 148.797 127.512C147.781 126.355 147.273 124.777 147.273 122.777V122.414C147.273 121.18 147.5 120.082 147.953 119.121C148.406 118.16 149.055 117.414 149.898 116.883C150.75 116.352 151.754 116.086 152.91 116.086C154.332 116.086 155.512 116.512 156.449 117.363C157.395 118.215 157.898 119.32 157.961 120.68H155.91C155.848 119.859 155.535 119.188 154.973 118.664C154.418 118.133 153.73 117.867 152.91 117.867C151.809 117.867 150.953 118.266 150.344 119.062C149.742 119.852 149.441 120.996 149.441 122.496V122.906C149.441 124.367 149.742 125.492 150.344 126.281C150.945 127.07 151.805 127.465 152.922 127.465ZM169.82 118.078H165.566V129H163.398V118.078H159.227V116.32H169.82V118.078ZM180.133 116.32H182.301V129H180.133V119.754L174.285 129H172.117V116.32H174.285V125.578L180.133 116.32Z" fill="black"/>
<defs>
<filter id="filter0_d" x="0" y="0" width="272" height="200" filterUnits="userSpaceOnUse" color-interpolation-filters="sRGB">
<feFlood flood-opacity="0" result="BackgroundImageFix"/>
<feColorMatrix in="SourceAlpha" type="matrix" values="0 0 0 0 0 0 0 0 0 0 0 0 0 0 0 0 0 0 127 0"/>
<feOffset dy="4"/>
<feGaussianBlur stdDeviation="5"/>
<feColorMatrix type="matrix" values="0 0 0 0 0 0 0 0 0 0 0 0 0 0 0 0 0 0 0.15 0"/>
<feBlend mode="normal" in2="BackgroundImageFix" result="effect1_dropShadow"/>
<feBlend mode="normal" in="SourceGraphic" in2="effect1_dropShadow" result="shape"/>
</filter>
</defs>
</svg>
