<svg width="272" height="200" viewBox="0 0 272 200" fill="none" xmlns="http://www.w3.org/2000/svg">
<g filter="url(#filter0_d)">
<rect x="10" y="6" width="252" height="180" fill="white"/>
</g>
<path d="M125.761 80.104L129.733 78.336L125.375 77.4698L125.127 78.5771C124.971 79.1664 125.256 79.7558 125.761 80.104Z" fill="black"/>
<path d="M146.744 84.5865L118.149 97.2931L119.253 99.6147L147.856 86.9082L146.744 84.5865Z" fill="black"/>
<path d="M147.534 81.9438L148.932 84.8904L154.127 85.9351C154.936 86.0958 155.726 85.5958 155.901 84.81L156.149 83.6761L147.534 81.9438Z" fill="black"/>
<path d="M142.734 76.1844C142.385 75.4433 141.493 75.1218 140.73 75.4611L114.894 86.944C114.14 87.2922 113.781 88.1583 114.14 88.8905L117.321 95.6588L145.925 82.9527L142.734 76.1844ZM138.312 83.8902L136.593 80.2471L140.344 78.5506L142.063 82.1937L138.312 83.8902Z" fill="black"/>
<path d="M120.007 101.356L120.503 102.401C120.862 103.133 121.754 103.481 122.508 103.133L148.325 91.6496C149.125 91.2925 149.466 90.3728 149.079 89.6138L148.601 88.6583L120.007 101.356Z" fill="black"/>
<path d="M145.172 76.943L146.569 79.8629L156.545 81.8721L157.079 79.345L145.172 76.943Z" fill="black"/>
<path d="M157.832 68.4781L130.01 62.8795C129.201 62.7188 128.401 63.2188 128.236 64.0135L126.654 71.3176L139.517 73.9338C139.517 73.9338 140.712 73.4516 141.365 73.5141C142.496 73.6124 143.351 73.9963 143.986 74.8892L157.363 77.568L158.936 70.2729C159.193 69.4424 158.651 68.6477 157.832 68.4781ZM154.789 74.7196L150.753 73.8892L151.608 69.9693L155.644 70.7997L154.789 74.7196Z" fill="black"/>
<path d="M136.703 75.2109L126.258 73.1302L125.725 75.6574L132.593 77.0504L136.703 75.2109Z" fill="black"/>
<path d="M107.051 111.938H109.312V127.16H117.727V111.938H119.977V127.113H121.77L121.559 133.113H119.531V129H107.051V111.938ZM129.457 129.234C127.738 129.234 126.34 128.672 125.262 127.547C124.184 126.414 123.645 124.902 123.645 123.012V122.613C123.645 121.355 123.883 120.234 124.359 119.25C124.844 118.258 125.516 117.484 126.375 116.93C127.242 116.367 128.18 116.086 129.188 116.086C130.836 116.086 132.117 116.629 133.031 117.715C133.945 118.801 134.402 120.355 134.402 122.379V123.281H125.812C125.844 124.531 126.207 125.543 126.902 126.316C127.605 127.082 128.496 127.465 129.574 127.465C130.34 127.465 130.988 127.309 131.52 126.996C132.051 126.684 132.516 126.27 132.914 125.754L134.238 126.785C133.176 128.418 131.582 129.234 129.457 129.234ZM129.188 117.867C128.312 117.867 127.578 118.188 126.984 118.828C126.391 119.461 126.023 120.352 125.883 121.5H132.234V121.336C132.172 120.234 131.875 119.383 131.344 118.781C130.812 118.172 130.094 117.867 129.188 117.867ZM147.281 129H145.113V123.586H139.289V129H137.109V116.32H139.289V121.816H145.113V116.32H147.281V129ZM153.141 120.691H156.434C157.871 120.707 159.008 121.082 159.844 121.816C160.68 122.551 161.098 123.547 161.098 124.805C161.098 126.07 160.668 127.086 159.809 127.852C158.949 128.617 157.793 129 156.34 129H150.973V116.32H153.141V120.691ZM165.621 129H163.441V116.32H165.621V129ZM153.141 122.461V127.23H156.363C157.176 127.23 157.805 127.023 158.25 126.609C158.695 126.188 158.918 125.613 158.918 124.887C158.918 124.184 158.699 123.609 158.262 123.164C157.832 122.711 157.227 122.477 156.445 122.461H153.141Z" fill="black"/>
<defs>
<filter id="filter0_d" x="0" y="0" width="272" height="200" filterUnits="userSpaceOnUse" color-interpolation-filters="sRGB">
<feFlood flood-opacity="0" result="BackgroundImageFix"/>
<feColorMatrix in="SourceAlpha" type="matrix" values="0 0 0 0 0 0 0 0 0 0 0 0 0 0 0 0 0 0 127 0"/>
<feOffset dy="4"/>
<feGaussianBlur stdDeviation="5"/>
<feColorMatrix type="matrix" values="0 0 0 0 0 0 0 0 0 0 0 0 0 0 0 0 0 0 0.15 0"/>
<feBlend mode="normal" in2="BackgroundImageFix" result="effect1_dropShadow"/>
<feBlend mode="normal" in="SourceGraphic" in2="effect1_dropShadow" result="shape"/>
</filter>
</defs>
</svg>
