<svg width="272" height="200" viewBox="0 0 272 200" fill="none" xmlns="http://www.w3.org/2000/svg">
<g filter="url(#filter0_d)">
<rect x="10" y="6" width="252" height="180" fill="white"/>
</g>
<path d="M128.59 79.5428C130.771 79.5428 132.545 77.843 132.545 75.7535C132.545 73.664 130.771 71.9642 128.59 71.9642C126.409 71.9642 124.635 73.664 124.635 75.7535C124.635 77.843 126.409 79.5428 128.59 79.5428ZM127.271 74.4904H129.908V77.0166H127.271V74.4904Z" fill="black"/>
<path d="M128.59 89.6475C136.586 89.6475 143.092 83.4146 143.092 75.7534C143.092 68.0922 136.586 61.8594 128.59 61.8594C120.593 61.8594 114 68.0922 114 75.7534C114 79.2282 115.492 82.5932 117.981 85.16L114 89.6475H128.59ZM120.68 74.4903H122.131C122.303 73.6855 122.638 72.9386 123.096 72.2762L122.065 71.2882L123.929 69.5021L124.96 70.4901C125.652 70.051 126.431 69.7298 127.271 69.5658V68.1748H129.908V69.5658C130.748 69.7298 131.528 70.051 132.219 70.4901L133.25 69.5021L135.115 71.2882L134.083 72.2762C134.542 72.9386 134.877 73.6855 135.048 74.4903H136.5V77.0165H135.048C134.877 77.8214 134.542 78.5683 134.083 79.2306L135.115 80.2186L133.25 82.0047L132.219 81.0167C131.528 81.4559 130.748 81.777 129.908 81.9411V83.332H127.271V81.9411C126.431 81.777 125.652 81.4559 124.96 81.0167L123.929 82.0047L122.065 80.2186L123.096 79.2306C122.638 78.5683 122.303 77.8214 122.131 77.0165H120.68V74.4903Z" fill="black"/>
<path d="M145.665 74.5511C145.695 74.9496 145.728 75.3476 145.728 75.7534C145.728 84.2068 139.024 91.1846 130.443 92.0735C132.136 97.9471 137.748 102.279 144.41 102.279H159L155.107 97.7911C157.595 95.2242 159 91.8592 159 88.3844C159 81.129 153.075 75.1638 145.665 74.5511Z" fill="black"/>
<path d="M105.84 121.84L109.766 111.938H112.379L106.344 126.152C105.938 127.059 105.559 127.703 105.207 128.086C104.855 128.461 104.441 128.75 103.965 128.953C103.496 129.148 102.906 129.246 102.195 129.246C101.578 129.246 101.184 129.211 101.012 129.141L101.082 127.359L102.148 127.406C102.969 127.406 103.578 127.012 103.977 126.223L104.27 125.613L104.715 124.57L98.9023 111.938H101.422L105.84 121.84ZM119.023 127.465C119.797 127.465 120.473 127.23 121.051 126.762C121.629 126.293 121.949 125.707 122.012 125.004H124.062C124.023 125.73 123.773 126.422 123.312 127.078C122.852 127.734 122.234 128.258 121.461 128.648C120.695 129.039 119.883 129.234 119.023 129.234C117.297 129.234 115.922 128.66 114.898 127.512C113.883 126.355 113.375 124.777 113.375 122.777V122.414C113.375 121.18 113.602 120.082 114.055 119.121C114.508 118.16 115.156 117.414 116 116.883C116.852 116.352 117.855 116.086 119.012 116.086C120.434 116.086 121.613 116.512 122.551 117.363C123.496 118.215 124 119.32 124.062 120.68H122.012C121.949 119.859 121.637 119.188 121.074 118.664C120.52 118.133 119.832 117.867 119.012 117.867C117.91 117.867 117.055 118.266 116.445 119.062C115.844 119.852 115.543 120.996 115.543 122.496V122.906C115.543 124.367 115.844 125.492 116.445 126.281C117.047 127.07 117.906 127.465 119.023 127.465ZM136.895 116.32V129H134.715V118.113H130.402L130.145 122.859C130.004 125.039 129.637 126.598 129.043 127.535C128.457 128.473 127.523 128.961 126.242 129H125.375V127.09L125.996 127.043C126.699 126.965 127.203 126.559 127.508 125.824C127.812 125.09 128.008 123.73 128.094 121.746L128.328 116.32H136.895ZM144.523 125.824L147.477 116.32H149.797L144.699 130.957C143.91 133.066 142.656 134.121 140.938 134.121L140.527 134.086L139.719 133.934V132.176L140.305 132.223C141.039 132.223 141.609 132.074 142.016 131.777C142.43 131.48 142.77 130.938 143.035 130.148L143.516 128.859L138.992 116.32H141.359L144.523 125.824ZM159.934 118.113H154.086V129H151.906V116.32H159.934V118.113ZM170.023 116.32H172.191V129H170.023V119.754L164.176 129H162.008V116.32H164.176V125.578L170.023 116.32Z" fill="black"/>
<defs>
<filter id="filter0_d" x="0" y="0" width="272" height="200" filterUnits="userSpaceOnUse" color-interpolation-filters="sRGB">
<feFlood flood-opacity="0" result="BackgroundImageFix"/>
<feColorMatrix in="SourceAlpha" type="matrix" values="0 0 0 0 0 0 0 0 0 0 0 0 0 0 0 0 0 0 127 0"/>
<feOffset dy="4"/>
<feGaussianBlur stdDeviation="5"/>
<feColorMatrix type="matrix" values="0 0 0 0 0 0 0 0 0 0 0 0 0 0 0 0 0 0 0.15 0"/>
<feBlend mode="normal" in2="BackgroundImageFix" result="effect1_dropShadow"/>
<feBlend mode="normal" in="SourceGraphic" in2="effect1_dropShadow" result="shape"/>
</filter>
</defs>
</svg>
