<svg width="272" height="200" viewBox="0 0 272 200" fill="none" xmlns="http://www.w3.org/2000/svg">
<g filter="url(#filter0_d)">
<rect x="10" y="6" width="252" height="180" fill="white"/>
</g>
<g clip-path="url(#clip0)">
<path d="M130.47 86.7693C127.527 86.7693 125.277 88.7693 125.277 91.3847C125.277 94.0001 127.527 96.0001 130.47 96.0001C133.412 96.0001 135.662 94.0001 135.662 91.3847C135.662 88.7693 133.412 86.7693 130.47 86.7693ZM130.47 93.5385C129.085 93.5385 128.047 92.6154 128.047 91.3847C128.047 90.1539 129.085 89.2308 130.47 89.2308C131.854 89.2308 132.893 90.1539 132.893 91.3847C132.893 92.6154 131.854 93.5385 130.47 93.5385Z" fill="black"/>
<path d="M147.777 86.7693C144.835 86.7693 142.585 88.7693 142.585 91.3847C142.585 94.0001 144.835 96.0001 147.777 96.0001C150.72 96.0001 152.97 94.0001 152.97 91.3847C152.97 88.7693 150.72 86.7693 147.777 86.7693ZM147.777 93.5385C146.393 93.5385 145.354 92.6154 145.354 91.3847C145.354 90.1539 146.393 89.2308 147.777 89.2308C149.162 89.2308 150.2 90.1539 150.2 91.3847C150.2 92.6154 149.162 93.5385 147.777 93.5385Z" fill="black"/>
<path d="M154.354 62.1538H124.758L121.816 56H114.893V59.0769H119.566L126.835 74.7692C124.758 75.5385 123.373 77.3846 123.546 79.5385C123.893 82 126.316 83.6923 128.912 83.6923H152.969V80.6154H128.739C127.7 80.6154 127.008 80 127.008 79.0769C127.008 78.1538 127.7 77.5385 128.739 77.5385H151.585C152.45 77.5385 153.143 77.0769 153.316 76.3077L156.085 64C156.258 63.0769 155.393 62.1538 154.354 62.1538Z" fill="black"/>
</g>
<path d="M106.77 113.789H101.285V129H99.0469V113.789H93.5742V111.938H106.77V113.789ZM107.215 122.543C107.215 121.301 107.457 120.184 107.941 119.191C108.434 118.199 109.113 117.434 109.98 116.895C110.855 116.355 111.852 116.086 112.969 116.086C114.695 116.086 116.09 116.684 117.152 117.879C118.223 119.074 118.758 120.664 118.758 122.648V122.801C118.758 124.035 118.52 125.145 118.043 126.129C117.574 127.105 116.898 127.867 116.016 128.414C115.141 128.961 114.133 129.234 112.992 129.234C111.273 129.234 109.879 128.637 108.809 127.441C107.746 126.246 107.215 124.664 107.215 122.695V122.543ZM109.395 122.801C109.395 124.207 109.719 125.336 110.367 126.188C111.023 127.039 111.898 127.465 112.992 127.465C114.094 127.465 114.969 127.035 115.617 126.176C116.266 125.309 116.59 124.098 116.59 122.543C116.59 121.152 116.258 120.027 115.594 119.168C114.938 118.301 114.062 117.867 112.969 117.867C111.898 117.867 111.035 118.293 110.379 119.145C109.723 119.996 109.395 121.215 109.395 122.801ZM121.676 129V116.32H126.621C128.309 116.32 129.602 116.617 130.5 117.211C131.406 117.797 131.859 118.66 131.859 119.801C131.859 120.387 131.684 120.918 131.332 121.395C130.98 121.863 130.461 122.223 129.773 122.473C130.539 122.652 131.152 123.004 131.613 123.527C132.082 124.051 132.316 124.676 132.316 125.402C132.316 126.566 131.887 127.457 131.027 128.074C130.176 128.691 128.969 129 127.406 129H121.676ZM123.844 123.434V127.254H127.43C128.336 127.254 129.012 127.086 129.457 126.75C129.91 126.414 130.137 125.941 130.137 125.332C130.137 124.066 129.207 123.434 127.348 123.434H123.844ZM123.844 121.699H126.645C128.676 121.699 129.691 121.105 129.691 119.918C129.691 118.73 128.73 118.117 126.809 118.078H123.844V121.699ZM143.016 129C142.891 128.75 142.789 128.305 142.711 127.664C141.703 128.711 140.5 129.234 139.102 129.234C137.852 129.234 136.824 128.883 136.02 128.18C135.223 127.469 134.824 126.57 134.824 125.484C134.824 124.164 135.324 123.141 136.324 122.414C137.332 121.68 138.746 121.312 140.566 121.312H142.676V120.316C142.676 119.559 142.449 118.957 141.996 118.512C141.543 118.059 140.875 117.832 139.992 117.832C139.219 117.832 138.57 118.027 138.047 118.418C137.523 118.809 137.262 119.281 137.262 119.836H135.082C135.082 119.203 135.305 118.594 135.75 118.008C136.203 117.414 136.812 116.945 137.578 116.602C138.352 116.258 139.199 116.086 140.121 116.086C141.582 116.086 142.727 116.453 143.555 117.188C144.383 117.914 144.812 118.918 144.844 120.199V126.035C144.844 127.199 144.992 128.125 145.289 128.812V129H143.016ZM139.418 127.348C140.098 127.348 140.742 127.172 141.352 126.82C141.961 126.469 142.402 126.012 142.676 125.449V122.848H140.977C138.32 122.848 136.992 123.625 136.992 125.18C136.992 125.859 137.219 126.391 137.672 126.773C138.125 127.156 138.707 127.348 139.418 127.348ZM158.953 122.801C158.953 124.73 158.512 126.285 157.629 127.465C156.746 128.645 155.551 129.234 154.043 129.234C152.504 129.234 151.293 128.746 150.41 127.77V133.875H148.242V116.32H150.223L150.328 117.727C151.211 116.633 152.438 116.086 154.008 116.086C155.531 116.086 156.734 116.66 157.617 117.809C158.508 118.957 158.953 120.555 158.953 122.602V122.801ZM156.785 122.555C156.785 121.125 156.48 119.996 155.871 119.168C155.262 118.34 154.426 117.926 153.363 117.926C152.051 117.926 151.066 118.508 150.41 119.672V125.73C151.059 126.887 152.051 127.465 153.387 127.465C154.426 127.465 155.25 127.055 155.859 126.234C156.477 125.406 156.785 124.18 156.785 122.555ZM164.086 120.691H167.379C168.816 120.707 169.953 121.082 170.789 121.816C171.625 122.551 172.043 123.547 172.043 124.805C172.043 126.07 171.613 127.086 170.754 127.852C169.895 128.617 168.738 129 167.285 129H161.918V116.32H164.086V120.691ZM176.566 129H174.387V116.32H176.566V129ZM164.086 122.461V127.23H167.309C168.121 127.23 168.75 127.023 169.195 126.609C169.641 126.188 169.863 125.613 169.863 124.887C169.863 124.184 169.645 123.609 169.207 123.164C168.777 122.711 168.172 122.477 167.391 122.461H164.086Z" fill="black"/>
<defs>
<filter id="filter0_d" x="0" y="0" width="272" height="200" filterUnits="userSpaceOnUse" color-interpolation-filters="sRGB">
<feFlood flood-opacity="0" result="BackgroundImageFix"/>
<feColorMatrix in="SourceAlpha" type="matrix" values="0 0 0 0 0 0 0 0 0 0 0 0 0 0 0 0 0 0 127 0"/>
<feOffset dy="4"/>
<feGaussianBlur stdDeviation="5"/>
<feColorMatrix type="matrix" values="0 0 0 0 0 0 0 0 0 0 0 0 0 0 0 0 0 0 0.15 0"/>
<feBlend mode="normal" in2="BackgroundImageFix" result="effect1_dropShadow"/>
<feBlend mode="normal" in="SourceGraphic" in2="effect1_dropShadow" result="shape"/>
</filter>
<clipPath id="clip0">
<rect x="113" y="56" width="45" height="40" fill="white"/>
</clipPath>
</defs>
</svg>
