<svg width="45" height="42" viewBox="0 0 45 42" fill="none" xmlns="http://www.w3.org/2000/svg">
<path d="M11.7612 18.104L15.7332 16.336L11.3751 15.4698L11.1268 16.5771C10.9705 17.1664 11.2555 17.7558 11.7612 18.104Z" fill="black"/>
<path d="M32.7439 22.5865L4.14941 35.2931L5.25274 37.6147L33.8564 24.9082L32.7439 22.5865Z" fill="black"/>
<path d="M33.5342 19.9438L34.9317 22.8904L40.1265 23.9351C40.9356 24.0958 41.7264 23.5958 41.901 22.81L42.1493 21.6761L33.5342 19.9438Z" fill="black"/>
<path d="M28.7345 14.1844C28.3851 13.4433 27.4932 13.1218 26.7301 13.4611L0.893912 24.944C0.139974 25.2922 -0.218607 26.1583 0.139974 26.8905L3.32123 33.6588L31.9249 20.9527L28.7345 14.1844ZM24.312 21.8902L22.5926 18.2471L26.3439 16.5506L28.0633 20.1937L24.312 21.8902Z" fill="black"/>
<path d="M6.00684 39.3558L6.50333 40.4005C6.86191 41.1327 7.75377 41.481 8.50771 41.1327L34.3255 29.6496C35.1254 29.2925 35.4656 28.3728 35.0794 27.6138L34.6013 26.6583L6.00684 39.3558Z" fill="black"/>
<path d="M31.1719 14.943L32.5694 17.8629L42.5453 19.8721L43.0786 17.345L31.1719 14.943Z" fill="black"/>
<path d="M43.8324 6.47809L16.0102 0.879503C15.2011 0.718778 14.4012 1.21881 14.2357 2.01351L12.6543 9.31757L25.5172 11.9338C25.5172 11.9338 26.7125 11.4516 27.3653 11.5141C28.4962 11.6124 29.3513 11.9963 29.9857 12.8892L43.3635 15.568L44.9357 8.27286C45.1932 7.44245 44.6507 6.64775 43.8324 6.47809ZM40.7891 12.7196L36.7527 11.8892L37.6078 7.96927L41.6441 8.79968L40.7891 12.7196Z" fill="black"/>
<path d="M22.7027 13.2109L12.2579 11.1302L11.7246 13.6574L18.5928 15.0504L22.7027 13.2109Z" fill="black"/>
</svg>
