<svg width="70" height="70" viewBox="0 0 70 70" fill="none" xmlns="http://www.w3.org/2000/svg">
<path d="M28.793 25.2117H41.1193V36.2372H28.793V25.2117Z" fill="#00B976"/>
<path d="M2.05341 36.7222C1.75359 36.7222 1.44925 36.6544 1.16105 36.5111C0.139493 36.0031 -0.288571 34.7387 0.205118 33.6872L8.42899 16.1682C8.60522 15.7926 8.88563 15.479 9.23467 15.2671L33.8874 0.293465C34.5315 -0.0978217 35.3313 -0.0978217 35.9755 0.293465L60.6283 15.267C60.9735 15.4765 61.2514 15.7855 61.4282 16.1558L69.7891 33.6748C70.2893 34.7231 69.8693 35.9902 68.8509 36.5051C67.8325 37.02 66.6016 36.5877 66.1011 35.5395L58.0109 18.588L34.9314 4.57L11.8582 18.5843L3.90471 35.5272C3.5502 36.2823 2.81698 36.7222 2.05341 36.7222Z" fill="#00B976"/>
<path d="M62.3991 37.3071L54.8357 21.4589L34.9309 9.3692L15.0446 21.4477L7.61695 37.2704C6.75057 39.1163 5.02792 40.4028 3.06738 40.7372V70H16.7735V48.3751C16.7735 47.2425 17.6917 46.3243 18.8243 46.3243H51.1745C52.3071 46.3243 53.2253 47.2425 53.2253 48.3751V70H66.8438V40.722C64.9344 40.3666 63.2573 39.1045 62.3991 37.3071ZM45.2276 38.3519C45.2276 39.5197 44.3077 40.4665 43.1731 40.4665H26.7381C25.6035 40.4665 24.6838 39.5197 24.6838 38.3519V23.0972C24.6838 21.9293 25.6036 20.9826 26.7381 20.9826H43.1732C44.3079 20.9826 45.2277 21.9293 45.2277 23.0972V38.3519H45.2276Z" fill="#00B976"/>
<path d="M49.1239 52.0128L38.9609 58.1621L49.1239 64.3114V52.0128Z" fill="#00B976"/>
<path d="M26.1758 65.8985H43.8245L35.0001 60.559L26.1758 65.8985Z" fill="#00B976"/>
<path d="M20.875 64.3114L31.038 58.1621L20.875 52.0128V64.3114Z" fill="#00B976"/>
<path d="M35.0001 55.7653L43.8246 50.4259H26.1758L35.0001 55.7653Z" fill="#00B976"/>
</svg>
