<svg width="70" height="70" viewBox="0 0 70 70" fill="none" xmlns="http://www.w3.org/2000/svg">
<path d="M27.1225 64.4304C27.0468 64.3332 26.9737 64.2343 26.8994 64.137C26.7809 63.9807 26.6687 63.8405 26.5452 63.6724C25.7774 63.1694 25.0349 62.6281 24.3036 62.0677C24.1007 61.9128 23.9014 61.7565 23.7023 61.5971C22.9736 61.0146 22.2588 60.4141 21.5704 59.7771C21.3914 59.6104 21.2225 59.4349 21.046 59.2652C20.5305 58.7696 20.0287 58.2608 19.5382 57.7357C19.2886 57.4687 19.0365 57.2032 18.7932 56.9289C18.2524 56.3183 17.7279 55.6899 17.2212 55.0438C16.9236 54.6662 16.64 54.2769 16.3551 53.8889C16.0992 53.5379 15.8496 53.1809 15.6025 52.8211C15.0289 51.9877 14.4868 51.1322 13.9686 50.2563C13.859 50.069 13.7429 49.886 13.6358 49.6958C13.3017 49.1117 12.9827 48.5188 12.6739 47.9185C12.631 47.833 12.5907 47.7474 12.5478 47.6633C10.5622 43.7414 9.0998 39.4891 8.22876 35.0377C5.92175 35.3282 3.6499 35.8783 1.46134 36.6807L0 37.216L0.461374 38.9255C5.07801 56.0468 17.6875 68.3642 31.7947 70L28.3518 65.963C27.952 65.4939 27.5436 64.9791 27.1225 64.4304Z" fill="#00B976"/>
<path d="M10.4781 33.1601C11.4954 39.1396 13.5932 44.6839 16.5697 49.4657C16.576 49.476 16.5822 49.4878 16.5898 49.4996C16.9416 50.0631 17.3071 50.6132 17.6829 51.1559C17.7471 51.2488 17.8152 51.3417 17.8807 51.4347C18.8868 52.8595 19.9798 54.1988 21.1459 55.4569C21.4056 55.7371 21.6653 56.0174 21.9338 56.2903C22.0473 56.4039 22.1645 56.5131 22.278 56.6267C22.1431 56.3494 22.0233 56.0632 21.8934 55.783C21.7787 55.5337 21.6627 55.2859 21.553 55.0352C21.3412 54.5559 21.1382 54.0721 20.9416 53.5854C20.8761 53.4217 20.8129 53.2579 20.7487 53.0942C16.3488 41.8107 16.1357 28.6763 20.5192 17.0168C18.0735 15.4741 15.484 14.2764 12.8075 13.4488L11.3274 12.9902L10.9392 14.7233C9.55999 20.8797 9.45658 27.1276 10.445 33.0614C10.4528 33.0967 10.4717 33.1233 10.4781 33.1601Z" fill="#00B976"/>
<path d="M50.0632 18.705C50.2095 19.1415 50.3519 19.5782 50.4855 20.0177C50.546 20.2198 50.6015 20.4218 50.6595 20.6239C52.7876 27.9677 53.1947 35.7364 51.9656 43.1656C51.958 43.2129 51.9492 43.2615 51.9404 43.3087C51.8294 43.9681 51.7109 44.6259 51.5734 45.2807C51.5683 45.3043 51.5621 45.3295 51.557 45.353C51.3339 46.4136 51.0729 47.4636 50.7817 48.5035C50.6934 48.8207 50.6115 49.1393 50.5169 49.4548C50.4262 49.7557 50.3253 50.0537 50.2282 50.3531C50.0757 50.8266 49.9218 51.2986 49.7554 51.7676C49.6684 52.0094 49.5776 52.2499 49.4882 52.4903C49.2864 53.0315 49.0746 53.57 48.8528 54.1038C48.7809 54.2779 48.7078 54.452 48.6334 54.626C48.3561 55.2705 48.0649 55.9092 47.7597 56.5421C47.7458 56.5702 47.7345 56.5997 47.7207 56.6276C47.8342 56.5155 47.9501 56.4079 48.0624 56.2943C48.3347 56.017 48.5982 55.7324 48.8642 55.4462C50.024 54.194 51.1133 52.8591 52.1142 51.4402C52.1824 51.3444 52.2517 51.25 52.3197 51.1526C52.6941 50.6128 53.0585 50.0625 53.4089 49.5006C53.4165 49.4874 53.424 49.4756 53.4316 49.4637C56.4069 44.6819 58.5047 39.139 59.522 33.1595C59.5271 33.1257 59.546 33.0991 59.5536 33.0666C60.5432 27.1299 60.4412 20.8806 59.0607 14.7225L58.6724 12.9894L57.1923 13.4481C54.5146 14.2755 51.9263 15.4746 49.4793 17.0175C49.5588 17.2269 49.623 17.4423 49.7 17.6533C49.8249 18.0029 49.9459 18.3539 50.0632 18.705Z" fill="#00B976"/>
<path d="M40.8292 62.6869C41.094 62.3476 41.3663 61.9892 41.6563 61.5939C41.6727 61.5718 41.6891 61.5483 41.7055 61.526C42.8111 60.0157 43.8083 58.4272 44.7008 56.7781C44.7349 56.7133 44.769 56.6499 44.803 56.5863C45.6514 54.9977 46.3978 53.3518 47.047 51.6629C47.1189 51.477 47.1857 51.2883 47.2551 51.101C47.4883 50.4668 47.7064 49.8267 47.9118 49.1806C47.9824 48.958 48.0594 48.7352 48.1274 48.5095C48.3468 47.7853 48.5421 47.0537 48.7262 46.3163C48.8233 45.9239 48.9103 45.5302 48.9973 45.1349C49.0818 44.7589 49.1586 44.3798 49.2331 44.0006C49.5584 42.3266 49.7991 40.6333 49.9454 38.9298C49.9567 38.8015 49.9668 38.6731 49.977 38.5449C50.1233 36.6554 50.1623 34.7557 50.0866 32.8619C50.0854 32.8295 50.0841 32.7971 50.0829 32.7646C50.0047 30.8899 49.8157 29.0211 49.5206 27.1715C49.4941 27.0093 49.4676 26.8471 49.4399 26.6848C49.1626 25.0476 48.7932 23.4282 48.3444 21.8322C48.2184 21.3868 48.0872 20.9443 47.9473 20.5018C47.8414 20.164 47.7367 19.8263 47.6232 19.4914C47.3661 18.7392 47.0913 17.99 46.7925 17.2495C45.1157 13.0666 42.8087 9.14607 39.8637 5.69327L35.0063 0L30.1502 5.69327C26.3177 10.186 23.5592 15.4708 21.8737 21.1006C21.8598 21.1448 21.8472 21.1906 21.8333 21.2348C19.09 30.5021 19.2552 40.6969 22.3187 49.8564C22.4018 50.1027 22.4838 50.349 22.5709 50.5923C22.7334 51.054 22.9011 51.5127 23.079 51.9684C23.2768 52.47 23.4849 52.9656 23.6992 53.4581C23.8921 53.902 24.0938 54.3416 24.3018 54.7796C24.53 55.2605 24.7644 55.7398 25.0115 56.2104C25.1578 56.4935 25.3052 56.7739 25.4591 57.0527C25.8436 57.7519 26.2408 58.4451 26.6643 59.1205C26.7249 59.2178 26.7916 59.3107 26.8534 59.4082C27.2581 60.0394 27.6804 60.6589 28.1178 61.2681C28.3321 61.566 28.5465 61.864 28.7696 62.1574C28.839 62.2489 28.9108 62.3447 28.9789 62.4333C29.3584 62.9229 29.7467 63.4053 30.1502 63.8788L35.0063 69.572L39.8637 63.8788C40.1951 63.4893 40.5128 63.0881 40.8292 62.6869Z" fill="#00B976"/>
<path d="M68.538 36.6806C66.3519 35.8796 64.0802 35.3295 61.7706 35.0375C60.8982 39.4978 59.4308 43.7619 57.4388 47.6896C57.4023 47.7619 57.367 47.8356 57.3292 47.9079C57.0179 48.5141 56.6963 49.113 56.3597 49.7029C56.2602 49.8784 56.153 50.048 56.0508 50.2206C55.5265 51.1114 54.9755 51.9802 54.393 52.8268C54.1472 53.1853 53.8988 53.5392 53.6441 53.8873C53.3593 54.2768 53.0756 54.6646 52.7781 55.0437C52.2699 55.6913 51.7443 56.3211 51.2021 56.9331C50.9626 57.203 50.7143 57.4657 50.4672 57.7281C49.9705 58.2621 49.4599 58.7798 48.938 59.2812C48.7679 59.4435 48.6064 59.613 48.4338 59.7724C47.7403 60.414 47.0181 61.0217 46.283 61.6088C46.0939 61.7593 45.9035 61.9096 45.7106 62.0556C44.9744 62.6206 44.2268 63.1678 43.4527 63.6752C43.4476 63.6811 43.4438 63.6855 43.4387 63.6915C43.1865 64.0322 42.9306 64.3714 42.6673 64.7047C42.3194 65.1501 41.9814 65.5706 41.6473 65.9629L38.2031 69.9999C52.3116 68.3626 64.9211 56.0468 69.5377 38.9254L69.9991 37.2158L68.538 36.6806Z" fill="#00B976"/>
</svg>
