<svg width="115" height="24" viewBox="0 0 115 24" fill="none" xmlns="http://www.w3.org/2000/svg">
<path d="M14.65 0.919998V5.12H5.2V10.13H13.39V14.33H5.2V23H0.85V0.919998H14.65ZM22.8583 12.89C23.2183 12.19 23.7083 11.56 24.3283 11C24.9683 10.44 25.6183 10.01 26.2783 9.71C26.9383 9.39 27.4583 9.23 27.8383 9.23L27.6283 13.43C27.5083 13.41 27.3383 13.4 27.1183 13.4C26.2783 13.4 25.5383 13.62 24.8983 14.06C24.2583 14.5 23.7683 15.07 23.4283 15.77C23.0883 16.45 22.9183 17.15 22.9183 17.87V23H18.7483V9.89H22.5283L22.8583 12.89ZM37.607 19.79C38.447 19.79 39.317 19.5 40.217 18.92L42.077 22.04C41.357 22.44 40.597 22.76 39.797 23C38.997 23.24 38.237 23.36 37.517 23.36C35.957 23.36 34.607 23.07 33.467 22.49C32.347 21.89 31.497 21.06 30.917 20C30.337 18.92 30.047 17.69 30.047 16.31C30.047 15.03 30.377 13.85 31.037 12.77C31.717 11.69 32.637 10.84 33.797 10.22C34.957 9.58 36.227 9.26 37.607 9.26C39.487 9.26 41.027 9.81 42.227 10.91C43.447 12.01 44.237 13.58 44.597 15.62L34.997 18.68C35.637 19.42 36.507 19.79 37.607 19.79ZM37.277 12.53C36.337 12.53 35.587 12.85 35.027 13.49C34.467 14.13 34.187 14.99 34.187 16.07V16.34L39.947 14.39C39.527 13.15 38.637 12.53 37.277 12.53ZM54.7891 19.79C55.6291 19.79 56.4991 19.5 57.3991 18.92L59.2591 22.04C58.5391 22.44 57.7791 22.76 56.9791 23C56.1791 23.24 55.4191 23.36 54.6991 23.36C53.1391 23.36 51.7891 23.07 50.6491 22.49C49.5291 21.89 48.6791 21.06 48.0991 20C47.5191 18.92 47.2291 17.69 47.2291 16.31C47.2291 15.03 47.5591 13.85 48.2191 12.77C48.8991 11.69 49.8191 10.84 50.9791 10.22C52.1391 9.58 53.4091 9.26 54.7891 9.26C56.6691 9.26 58.2091 9.81 59.4091 10.91C60.6291 12.01 61.4191 13.58 61.7791 15.62L52.1791 18.68C52.8191 19.42 53.6891 19.79 54.7891 19.79ZM54.4591 12.53C53.5191 12.53 52.7691 12.85 52.2091 13.49C51.6491 14.13 51.3691 14.99 51.3691 16.07V16.34L57.1291 14.39C56.7091 13.15 55.8191 12.53 54.4591 12.53Z" fill="#00B976"/>
<path d="M69.6911 23.27C68.6111 23.27 67.6011 23.08 66.6611 22.7C65.7211 22.32 64.9411 21.79 64.3211 21.11L66.0611 18.8C67.2211 19.88 68.3111 20.42 69.3311 20.42C69.8711 20.42 70.3011 20.34 70.6211 20.18C70.9611 20 71.1311 19.74 71.1311 19.4C71.1311 19 70.9411 18.7 70.5611 18.5C70.1811 18.28 69.7511 18.1 69.2711 17.96C68.8111 17.82 68.5011 17.73 68.3411 17.69C67.2011 17.33 66.3511 16.8 65.7911 16.1C65.2311 15.38 64.9511 14.56 64.9511 13.64C64.9511 12.94 65.1311 12.26 65.4911 11.6C65.8711 10.92 66.4511 10.37 67.2311 9.95C68.0111 9.51 68.9811 9.29 70.1411 9.29C71.2211 9.29 72.1411 9.4 72.9011 9.62C73.6611 9.84 74.3911 10.2 75.0911 10.7L73.5011 13.16C73.1011 12.84 72.6511 12.58 72.1511 12.38C71.6711 12.16 71.2311 12.05 70.8311 12.05C70.3511 12.05 69.9611 12.15 69.6611 12.35C69.3611 12.55 69.2111 12.79 69.2111 13.07C69.1911 13.49 69.3611 13.81 69.7211 14.03C70.1011 14.23 70.6811 14.44 71.4611 14.66C71.5811 14.7 71.7011 14.74 71.8211 14.78C71.9611 14.82 72.1011 14.86 72.2411 14.9C74.3011 15.58 75.3311 16.82 75.3311 18.62C75.3311 19.46 75.1211 20.23 74.7011 20.93C74.2811 21.63 73.6411 22.2 72.7811 22.64C71.9411 23.06 70.9111 23.27 69.6911 23.27ZM83.6491 9.89V23H79.4491V9.89H83.6491ZM79.3591 5.24C79.3591 4.64 79.5891 4.14 80.0491 3.74C80.5291 3.32 81.0691 3.11 81.6691 3.11C82.2491 3.11 82.7691 3.32 83.2291 3.74C83.6891 4.14 83.9191 4.64 83.9191 5.24C83.9191 5.84 83.6891 6.34 83.2291 6.74C82.7691 7.14 82.2491 7.34 81.6691 7.34C81.0691 7.34 80.5291 7.14 80.0491 6.74C79.5891 6.34 79.3591 5.84 79.3591 5.24ZM94.0045 4.13V9.83H97.1845V13.1H94.0045V23H89.8045V13.1H87.7645V9.83H89.8045V4.13H94.0045ZM107.521 19.79C108.361 19.79 109.231 19.5 110.131 18.92L111.991 22.04C111.271 22.44 110.511 22.76 109.711 23C108.911 23.24 108.151 23.36 107.431 23.36C105.871 23.36 104.521 23.07 103.381 22.49C102.261 21.89 101.411 21.06 100.831 20C100.251 18.92 99.9611 17.69 99.9611 16.31C99.9611 15.03 100.291 13.85 100.951 12.77C101.631 11.69 102.551 10.84 103.711 10.22C104.871 9.58 106.141 9.26 107.521 9.26C109.401 9.26 110.941 9.81 112.141 10.91C113.361 12.01 114.151 13.58 114.511 15.62L104.911 18.68C105.551 19.42 106.421 19.79 107.521 19.79ZM107.191 12.53C106.251 12.53 105.501 12.85 104.941 13.49C104.381 14.13 104.101 14.99 104.101 16.07V16.34L109.861 14.39C109.441 13.15 108.551 12.53 107.191 12.53Z" fill="#457EEC"/>
</svg>
