<svg width="72" height="72" viewBox="0 0 72 72" fill="none" xmlns="http://www.w3.org/2000/svg">
<g clip-path="url(#clip0)">
<path d="M67.5 26.9998V64.4998C67.5107 65.9758 67.0711 67.42 66.24 68.6398C65.9731 69.0621 65.6612 69.4545 65.31 69.8098L35.55 40.0498L34.5 38.9998L54.99 18.5098L56.28 19.3198L66.78 25.7098C67.2268 25.9866 67.499 26.4743 67.5 26.9998Z" fill="#CFD8DC"/>
<path d="M54.99 18.51L33.4501 40.0499L3.69014 69.8099C3.33886 69.4546 3.02709 69.0622 2.76019 68.6399C1.9291 67.4202 1.4895 65.9759 1.50019 64.4999V16.4999C1.50019 12.3578 4.85803 9 9.00013 9H39C39.2727 9.00928 39.5396 9.08114 39.7801 9.20995L53.7001 17.6999L54.99 18.51Z" fill="#4CAF50"/>
<path d="M65.3104 69.8098C64.9551 70.1612 64.5629 70.4731 64.1404 70.7397C62.9206 71.571 61.4764 72.0106 60.0004 71.9997H9.00042C7.52442 72.0106 6.08021 71.571 4.86043 70.7397C4.43785 70.473 4.04565 70.1612 3.69043 69.8098L33.4504 40.0498L34.5005 38.9998L35.5505 40.0498L65.3104 69.8098Z" fill="#2196F3"/>
<path d="M66.2397 68.6397C65.7088 69.4905 64.9905 70.2088 64.1397 70.7397L33.4497 40.0497C32.8757 39.464 32.8853 38.5238 33.471 37.9498C34.0484 37.3839 34.9723 37.3839 35.5497 37.9498L66.2397 68.6397Z" fill="#FAFAFA"/>
<path d="M53.6459 19.3202L32.9159 40.0501L2.22593 70.7401C1.37515 70.2092 0.656835 69.4909 0.125977 68.6401L51.0659 17.7002L53.6459 19.3202Z" fill="#FFC107"/>
<path d="M15 26.9998C11.6864 26.9998 9 24.3135 9 20.9998C9 17.6861 11.6864 14.9998 15 14.9998C18.3137 14.9998 21.0001 17.6861 21.0001 20.9998C21.0001 24.3135 18.3137 26.9998 15 26.9998ZM15 17.9998C13.3432 17.9998 12.0001 19.3429 12.0001 20.9998C12.0001 22.6566 13.3432 23.9997 15 23.9997C16.6569 23.9997 18 22.6566 18 20.9998C18 19.3429 16.6569 17.9998 15 17.9998Z" fill="#FAFAFA"/>
<path d="M21.0001 17.9998H15C14.1716 17.9998 13.5 17.3282 13.5 16.4998C13.5 15.6714 14.1716 14.9998 15 14.9998H21.0001C21.8285 14.9998 22.5001 15.6714 22.5001 16.4998C22.5001 17.3282 21.8285 17.9998 21.0001 17.9998Z" fill="#FAFAFA"/>
<path d="M15.0001 38.9997C11.2957 39.4328 7.9417 36.7809 7.50858 33.0765C7.50563 33.0509 7.50267 33.0253 7.5 32.9998C7.5 30.1947 10.164 28.3018 15.426 27.3538C15.1449 26.7763 14.9992 26.1422 15.0001 25.4998C15.0001 24.6714 15.6717 23.9998 16.5001 23.9998C17.3285 23.9998 18.0002 24.6714 18.0002 25.4998C18.0002 26.1808 18.6212 26.8258 19.6411 27.8128C21.294 29.0516 22.3354 30.9407 22.5002 32.9998C22.5 38.2737 18.9 38.9997 15.0001 38.9997ZM17.64 30.0537C12.384 30.7167 10.5001 32.0427 10.5001 32.9996C10.5001 33.5997 11.3011 35.9996 15.0001 35.9996C19.2991 35.9996 19.5001 34.9706 19.5001 32.9996C19.5001 31.9497 18.801 31.1787 17.64 30.0537Z" fill="#FAFAFA"/>
<path d="M53.9999 0C44.8921 0.0115312 37.5115 7.39208 37.5 16.4999C37.5049 17.4062 37.5944 18.3102 37.767 19.1999C38.1286 21.5257 38.996 23.7438 40.308 25.6979C41.0039 26.8979 41.808 28.1459 42.657 29.4779C47.5347 36.4803 50.8973 44.4236 52.53 52.7998C52.6948 53.6116 53.4866 54.1362 54.2985 53.9713C54.8888 53.8515 55.3501 53.3901 55.47 52.7998C57.1013 44.4228 60.463 36.4785 65.34 29.4748C66.195 28.1458 66.9931 26.9069 67.629 25.7938C68.9656 23.8215 69.8524 21.5797 70.227 19.2268C70.4023 18.3282 70.4937 17.4152 70.5 16.4998C70.4883 7.39208 63.1079 0.0115312 53.9999 0Z" fill="#F44336"/>
<path d="M53.9999 23.9999C58.1421 23.9999 61.4999 20.642 61.4999 16.4999C61.4999 12.3578 58.1421 9 53.9999 9C49.8578 9 46.5 12.3578 46.5 16.4999C46.5 20.642 49.8578 23.9999 53.9999 23.9999Z" fill="#C62828"/>
</g>
<defs>
<clipPath id="clip0">
<rect width="72" height="72" rx="4" fill="white"/>
</clipPath>
</defs>
</svg>
