<svg width="121" height="46" viewBox="0 0 121 46" fill="none" xmlns="http://www.w3.org/2000/svg">
<path d="M8.26172 35.7197C8.26172 35.1911 8.06803 34.7718 7.68066 34.4619C7.29785 34.1475 6.75781 33.9902 6.06055 33.9902C5.47721 33.9902 4.9873 34.152 4.59082 34.4756C4.19889 34.7946 4.00293 35.1911 4.00293 35.665H2.69043C2.69043 35.1364 2.83398 34.6624 3.12109 34.2432C3.41276 33.8239 3.81836 33.498 4.33789 33.2656C4.85742 33.0286 5.43164 32.9102 6.06055 32.9102C7.17253 32.9102 8.03613 33.1608 8.65137 33.6621C9.2666 34.1589 9.57422 34.8516 9.57422 35.7402C9.57422 36.2005 9.43294 36.6198 9.15039 36.998C8.86784 37.3763 8.47363 37.6748 7.96777 37.8936C9.139 38.2855 9.72461 39.0625 9.72461 40.2246C9.72461 41.1178 9.39193 41.8265 8.72656 42.3506C8.0612 42.8747 7.17253 43.1367 6.06055 43.1367C5.39974 43.1367 4.79818 43.0205 4.25586 42.7881C3.7181 42.5511 3.29883 42.2161 2.99805 41.7832C2.69727 41.3503 2.54688 40.8353 2.54688 40.2383H3.85938C3.85938 40.7624 4.06673 41.1999 4.48145 41.5508C4.89616 41.8971 5.42253 42.0703 6.06055 42.0703C6.77604 42.0703 7.3457 41.904 7.76953 41.5713C8.19792 41.2386 8.41211 40.7988 8.41211 40.252C8.41211 39.0853 7.68978 38.4906 6.24512 38.4678H5.01465V37.3877H6.23828C6.90365 37.374 7.40723 37.2236 7.74902 36.9365C8.09082 36.6494 8.26172 36.2438 8.26172 35.7197ZM17.3125 43H16.0479V39.8418H12.6504V43H11.3789V35.6035H12.6504V38.8096H16.0479V35.6035H17.3125V43ZM23.916 43C23.8431 42.8542 23.7839 42.5944 23.7383 42.2207C23.1504 42.8314 22.4486 43.1367 21.6328 43.1367C20.9036 43.1367 20.3044 42.9316 19.835 42.5215C19.3701 42.1068 19.1377 41.5827 19.1377 40.9492C19.1377 40.179 19.4294 39.582 20.0127 39.1582C20.6006 38.7298 21.4255 38.5156 22.4873 38.5156H23.7178V37.9346C23.7178 37.4925 23.5856 37.1416 23.3213 36.8818C23.057 36.6175 22.6673 36.4854 22.1523 36.4854C21.7012 36.4854 21.3229 36.5993 21.0176 36.8271C20.7122 37.055 20.5596 37.3307 20.5596 37.6543H19.2881C19.2881 37.2852 19.418 36.9297 19.6777 36.5879C19.9421 36.2415 20.2975 35.9681 20.7441 35.7676C21.1953 35.5671 21.6898 35.4668 22.2275 35.4668C23.0798 35.4668 23.7474 35.681 24.2305 36.1094C24.7135 36.5332 24.9642 37.1188 24.9824 37.8662V41.2705C24.9824 41.9495 25.069 42.4896 25.2422 42.8906V43H23.916ZM21.8174 42.0361C22.2139 42.0361 22.5898 41.9336 22.9453 41.7285C23.3008 41.5234 23.5583 41.2568 23.7178 40.9287V39.4111H22.7266C21.1771 39.4111 20.4023 39.8646 20.4023 40.7715C20.4023 41.168 20.5345 41.4779 20.7988 41.7012C21.0632 41.9245 21.4027 42.0361 21.8174 42.0361ZM32.5498 43H31.2783V40.3203C30.7223 40.4661 30.1527 40.5391 29.5693 40.5391C28.6442 40.5391 27.9378 40.3021 27.4502 39.8281C26.9671 39.3542 26.721 38.6797 26.7119 37.8047V35.5967H27.9766V37.8457C27.9993 38.9486 28.5303 39.5 29.5693 39.5C30.1527 39.5 30.7223 39.4271 31.2783 39.2812V35.6035H32.5498V43ZM39.3652 35.6035H40.6299V43H39.3652V37.6064L35.9541 43H34.6895V35.6035H35.9541V41.0039L39.3652 35.6035ZM48.1562 36.6289H45.6748V43H44.4102V36.6289H41.9766V35.6035H48.1562V36.6289ZM56.1064 36.0273C57.0361 36.0273 57.779 36.3395 58.335 36.9639C58.8955 37.5837 59.1758 38.4017 59.1758 39.418V39.5342C59.1758 40.2314 59.0413 40.8558 58.7725 41.4072C58.5036 41.9541 58.1162 42.3802 57.6104 42.6855C57.109 42.9863 56.5303 43.1367 55.874 43.1367C54.8805 43.1367 54.0807 42.8063 53.4746 42.1455C52.8685 41.4801 52.5654 40.5892 52.5654 39.4727V38.8574C52.5654 37.3034 52.8525 36.0684 53.4268 35.1523C54.0055 34.2363 54.8577 33.6781 55.9834 33.4775C56.6214 33.3636 57.0521 33.2246 57.2754 33.0605C57.4987 32.8965 57.6104 32.6709 57.6104 32.3838H58.6494C58.6494 32.9535 58.5195 33.3978 58.2598 33.7168C58.0046 34.0358 57.5944 34.2614 57.0293 34.3936L56.0859 34.6055C55.334 34.7832 54.7689 35.084 54.3906 35.5078C54.0169 35.9271 53.7731 36.4876 53.6592 37.1895C54.3291 36.4147 55.1449 36.0273 56.1064 36.0273ZM55.8604 37.0664C55.2406 37.0664 54.7484 37.276 54.3838 37.6953C54.0192 38.11 53.8369 38.6865 53.8369 39.4248V39.5342C53.8369 40.3271 54.0192 40.9561 54.3838 41.4209C54.7529 41.8812 55.2497 42.1113 55.874 42.1113C56.5029 42.1113 56.9997 41.8789 57.3643 41.4141C57.7288 40.9492 57.9111 40.2702 57.9111 39.377C57.9111 38.6797 57.7266 38.1214 57.3574 37.7021C56.9928 37.2783 56.4938 37.0664 55.8604 37.0664ZM63.667 43.1367C62.6644 43.1367 61.8486 42.8086 61.2197 42.1523C60.5908 41.4915 60.2764 40.6097 60.2764 39.5068V39.2744C60.2764 38.5407 60.4154 37.8867 60.6934 37.3125C60.9759 36.7337 61.3678 36.2826 61.8691 35.959C62.375 35.6309 62.9219 35.4668 63.5098 35.4668C64.4714 35.4668 65.2188 35.7835 65.752 36.417C66.2852 37.0505 66.5518 37.9574 66.5518 39.1377V39.6641H61.541C61.5592 40.3932 61.7712 40.9834 62.1768 41.4346C62.5869 41.8812 63.1064 42.1045 63.7354 42.1045C64.182 42.1045 64.5602 42.0133 64.8701 41.8311C65.18 41.6488 65.4512 41.4072 65.6836 41.1064L66.4561 41.708C65.8363 42.6605 64.9066 43.1367 63.667 43.1367ZM63.5098 36.5059C62.9993 36.5059 62.571 36.6927 62.2246 37.0664C61.8783 37.4355 61.6641 37.9551 61.582 38.625H65.2871V38.5293C65.2507 37.8867 65.0775 37.39 64.7676 37.0391C64.4577 36.6836 64.0384 36.5059 63.5098 36.5059ZM70.9883 42.1045C71.4395 42.1045 71.8337 41.9678 72.1709 41.6943C72.5081 41.4209 72.695 41.0791 72.7314 40.6689H73.9277C73.9049 41.0928 73.7591 41.4961 73.4902 41.8789C73.2214 42.2617 72.8613 42.5671 72.4102 42.7949C71.9635 43.0228 71.4896 43.1367 70.9883 43.1367C69.9811 43.1367 69.179 42.8018 68.582 42.1318C67.9896 41.4574 67.6934 40.5368 67.6934 39.3701V39.1582C67.6934 38.4382 67.8255 37.7979 68.0898 37.2373C68.3542 36.6768 68.7324 36.2415 69.2246 35.9316C69.7214 35.6217 70.307 35.4668 70.9814 35.4668C71.8109 35.4668 72.499 35.7152 73.0459 36.2119C73.5973 36.7087 73.8913 37.3535 73.9277 38.1465H72.7314C72.695 37.668 72.5127 37.276 72.1846 36.9707C71.861 36.6608 71.46 36.5059 70.9814 36.5059C70.3389 36.5059 69.8398 36.7383 69.4844 37.2031C69.1335 37.6634 68.958 38.3311 68.958 39.2061V39.4453C68.958 40.2975 69.1335 40.9538 69.4844 41.4141C69.8353 41.8743 70.3366 42.1045 70.9883 42.1045ZM81.3994 43H80.1348V36.6494H76.7305V43H75.459V35.6035H81.3994V43ZM89.4932 35.6035V43H88.2217V36.6494H85.7061L85.5557 39.418C85.4736 40.6895 85.2594 41.5986 84.9131 42.1455C84.5713 42.6924 84.0267 42.9772 83.2793 43H82.7734V41.8857L83.1357 41.8584C83.5459 41.8128 83.8398 41.5758 84.0176 41.1475C84.1953 40.7191 84.3092 39.9261 84.3594 38.7686L84.4961 35.6035H89.4932ZM96.0898 43C96.0169 42.8542 95.9577 42.5944 95.9121 42.2207C95.3242 42.8314 94.6224 43.1367 93.8066 43.1367C93.0775 43.1367 92.4782 42.9316 92.0088 42.5215C91.5439 42.1068 91.3115 41.5827 91.3115 40.9492C91.3115 40.179 91.6032 39.582 92.1865 39.1582C92.7744 38.7298 93.5993 38.5156 94.6611 38.5156H95.8916V37.9346C95.8916 37.4925 95.7594 37.1416 95.4951 36.8818C95.2308 36.6175 94.8411 36.4854 94.3262 36.4854C93.875 36.4854 93.4967 36.5993 93.1914 36.8271C92.8861 37.055 92.7334 37.3307 92.7334 37.6543H91.4619C91.4619 37.2852 91.5918 36.9297 91.8516 36.5879C92.1159 36.2415 92.4714 35.9681 92.918 35.7676C93.3691 35.5671 93.8636 35.4668 94.4014 35.4668C95.2536 35.4668 95.9212 35.681 96.4043 36.1094C96.8874 36.5332 97.138 37.1188 97.1562 37.8662V41.2705C97.1562 41.9495 97.2428 42.4896 97.416 42.8906V43H96.0898ZM93.9912 42.0361C94.3877 42.0361 94.7637 41.9336 95.1191 41.7285C95.4746 41.5234 95.7321 41.2568 95.8916 40.9287V39.4111H94.9004C93.3509 39.4111 92.5762 39.8646 92.5762 40.7715C92.5762 41.168 92.7083 41.4779 92.9727 41.7012C93.237 41.9245 93.5765 42.0361 93.9912 42.0361ZM104.525 36.6289H102.044V43H100.779V36.6289H98.3457V35.6035H104.525V36.6289ZM111.799 43H110.534V39.8418H107.137V43H105.865V35.6035H107.137V38.8096H110.534V35.6035H111.799V43ZM113.501 39.2334C113.501 38.5088 113.642 37.8571 113.925 37.2783C114.212 36.6995 114.608 36.2529 115.114 35.9385C115.625 35.624 116.206 35.4668 116.857 35.4668C117.865 35.4668 118.678 35.8154 119.298 36.5127C119.922 37.21 120.234 38.1374 120.234 39.2949V39.3838C120.234 40.1038 120.095 40.751 119.817 41.3252C119.544 41.8949 119.15 42.3392 118.635 42.6582C118.124 42.9772 117.536 43.1367 116.871 43.1367C115.868 43.1367 115.055 42.7881 114.431 42.0908C113.811 41.3936 113.501 40.4707 113.501 39.3223V39.2334ZM114.772 39.3838C114.772 40.2041 114.962 40.8626 115.34 41.3594C115.723 41.8561 116.233 42.1045 116.871 42.1045C117.514 42.1045 118.024 41.8538 118.402 41.3525C118.781 40.8467 118.97 40.1403 118.97 39.2334C118.97 38.4222 118.776 37.766 118.389 37.2646C118.006 36.7588 117.495 36.5059 116.857 36.5059C116.233 36.5059 115.729 36.7542 115.347 37.251C114.964 37.7477 114.772 38.4587 114.772 39.3838Z" fill="black"/>
<path d="M16.65 0.919998V5.12H7.2V10.13H15.39V14.33H7.2V23H2.85V0.919998H16.65ZM24.8583 12.89C25.2183 12.19 25.7083 11.56 26.3283 11C26.9683 10.44 27.6183 10.01 28.2783 9.71C28.9383 9.39 29.4583 9.23 29.8383 9.23L29.6283 13.43C29.5083 13.41 29.3383 13.4 29.1183 13.4C28.2783 13.4 27.5383 13.62 26.8983 14.06C26.2583 14.5 25.7683 15.07 25.4283 15.77C25.0883 16.45 24.9183 17.15 24.9183 17.87V23H20.7483V9.89H24.5283L24.8583 12.89ZM39.607 19.79C40.447 19.79 41.317 19.5 42.217 18.92L44.077 22.04C43.357 22.44 42.597 22.76 41.797 23C40.997 23.24 40.237 23.36 39.517 23.36C37.957 23.36 36.607 23.07 35.467 22.49C34.347 21.89 33.497 21.06 32.917 20C32.337 18.92 32.047 17.69 32.047 16.31C32.047 15.03 32.377 13.85 33.037 12.77C33.717 11.69 34.637 10.84 35.797 10.22C36.957 9.58 38.227 9.26 39.607 9.26C41.487 9.26 43.027 9.81 44.227 10.91C45.447 12.01 46.237 13.58 46.597 15.62L36.997 18.68C37.637 19.42 38.507 19.79 39.607 19.79ZM39.277 12.53C38.337 12.53 37.587 12.85 37.027 13.49C36.467 14.13 36.187 14.99 36.187 16.07V16.34L41.947 14.39C41.527 13.15 40.637 12.53 39.277 12.53ZM56.7891 19.79C57.6291 19.79 58.4991 19.5 59.3991 18.92L61.2591 22.04C60.5391 22.44 59.7791 22.76 58.9791 23C58.1791 23.24 57.4191 23.36 56.6991 23.36C55.1391 23.36 53.7891 23.07 52.6491 22.49C51.5291 21.89 50.6791 21.06 50.0991 20C49.5191 18.92 49.2291 17.69 49.2291 16.31C49.2291 15.03 49.5591 13.85 50.2191 12.77C50.8991 11.69 51.8191 10.84 52.9791 10.22C54.1391 9.58 55.4091 9.26 56.7891 9.26C58.6691 9.26 60.2091 9.81 61.4091 10.91C62.6291 12.01 63.4191 13.58 63.7791 15.62L54.1791 18.68C54.8191 19.42 55.6891 19.79 56.7891 19.79ZM56.4591 12.53C55.5191 12.53 54.7691 12.85 54.2091 13.49C53.6491 14.13 53.3691 14.99 53.3691 16.07V16.34L59.1291 14.39C58.7091 13.15 57.8191 12.53 56.4591 12.53Z" fill="#00B976"/>
<path d="M71.6911 23.27C70.6111 23.27 69.6011 23.08 68.6611 22.7C67.7211 22.32 66.9411 21.79 66.3211 21.11L68.0611 18.8C69.2211 19.88 70.3111 20.42 71.3311 20.42C71.8711 20.42 72.3011 20.34 72.6211 20.18C72.9611 20 73.1311 19.74 73.1311 19.4C73.1311 19 72.9411 18.7 72.5611 18.5C72.1811 18.28 71.7511 18.1 71.2711 17.96C70.8111 17.82 70.5011 17.73 70.3411 17.69C69.2011 17.33 68.3511 16.8 67.7911 16.1C67.2311 15.38 66.9511 14.56 66.9511 13.64C66.9511 12.94 67.1311 12.26 67.4911 11.6C67.8711 10.92 68.4511 10.37 69.2311 9.95C70.0111 9.51 70.9811 9.29 72.1411 9.29C73.2211 9.29 74.1411 9.4 74.9011 9.62C75.6611 9.84 76.3911 10.2 77.0911 10.7L75.5011 13.16C75.1011 12.84 74.6511 12.58 74.1511 12.38C73.6711 12.16 73.2311 12.05 72.8311 12.05C72.3511 12.05 71.9611 12.15 71.6611 12.35C71.3611 12.55 71.2111 12.79 71.2111 13.07C71.1911 13.49 71.3611 13.81 71.7211 14.03C72.1011 14.23 72.6811 14.44 73.4611 14.66C73.5811 14.7 73.7011 14.74 73.8211 14.78C73.9611 14.82 74.1011 14.86 74.2411 14.9C76.3011 15.58 77.3311 16.82 77.3311 18.62C77.3311 19.46 77.1211 20.23 76.7011 20.93C76.2811 21.63 75.6411 22.2 74.7811 22.64C73.9411 23.06 72.9111 23.27 71.6911 23.27ZM85.6491 9.89V23H81.4491V9.89H85.6491ZM81.3591 5.24C81.3591 4.64 81.5891 4.14 82.0491 3.74C82.5291 3.32 83.0691 3.11 83.6691 3.11C84.2491 3.11 84.7691 3.32 85.2291 3.74C85.6891 4.14 85.9191 4.64 85.9191 5.24C85.9191 5.84 85.6891 6.34 85.2291 6.74C84.7691 7.14 84.2491 7.34 83.6691 7.34C83.0691 7.34 82.5291 7.14 82.0491 6.74C81.5891 6.34 81.3591 5.84 81.3591 5.24ZM96.0045 4.13V9.83H99.1845V13.1H96.0045V23H91.8045V13.1H89.7645V9.83H91.8045V4.13H96.0045ZM109.521 19.79C110.361 19.79 111.231 19.5 112.131 18.92L113.991 22.04C113.271 22.44 112.511 22.76 111.711 23C110.911 23.24 110.151 23.36 109.431 23.36C107.871 23.36 106.521 23.07 105.381 22.49C104.261 21.89 103.411 21.06 102.831 20C102.251 18.92 101.961 17.69 101.961 16.31C101.961 15.03 102.291 13.85 102.951 12.77C103.631 11.69 104.551 10.84 105.711 10.22C106.871 9.58 108.141 9.26 109.521 9.26C111.401 9.26 112.941 9.81 114.141 10.91C115.361 12.01 116.151 13.58 116.511 15.62L106.911 18.68C107.551 19.42 108.421 19.79 109.521 19.79ZM109.191 12.53C108.251 12.53 107.501 12.85 106.941 13.49C106.381 14.13 106.101 14.99 106.101 16.07V16.34L111.861 14.39C111.441 13.15 110.551 12.53 109.191 12.53Z" fill="#457EEC"/>
</svg>
