<svg width="26" height="20" viewBox="0 0 26 20" fill="none" xmlns="http://www.w3.org/2000/svg">
<path d="M25.4568 1.83214C21.8884 4.85418 15.627 10.1709 13.7866 11.8286C13.5396 12.0524 13.2746 12.1661 12.9995 12.1661C12.725 12.1661 12.4605 12.0534 12.214 11.8308C10.3721 10.1714 4.11068 4.85418 0.542236 1.83214C0.320068 1.64435 0.286198 1.31427 0.466064 1.08469C0.881861 0.55418 1.5018 0.25 2.16622 0.25H23.8328C24.4972 0.25 25.1172 0.55418 25.5329 1.08474C25.7128 1.31427 25.6789 1.64435 25.4568 1.83214Z" fill="#00B976"/>
<path d="M0.314184 3.46993C0.506187 3.38056 0.732063 3.41174 0.891821 3.54824C4.8491 6.90295 9.8997 11.203 11.4887 12.6349C12.3806 13.44 13.6184 13.44 14.5124 12.6338C16.2061 11.1077 21.8778 6.28616 25.1082 3.54819C25.269 3.41169 25.4954 3.38157 25.6858 3.46988C25.8773 3.5588 26 3.7503 26 3.96134V17.5834C26 18.7784 25.0283 19.7501 23.8333 19.7501H2.16663C0.971699 19.7501 0 18.7784 0 17.5834V3.96134C0 3.7503 0.12274 3.55829 0.314184 3.46993Z" fill="#00B976"/>
</svg>
