<svg width="70" height="70" viewBox="0 0 70 70" fill="none" xmlns="http://www.w3.org/2000/svg">
<path d="M45.8008 60.2325H2.05078C0.918203 60.2325 0 61.3258 0 62.6744C0 66.7202 2.75447 70 6.15234 70H41.6992C45.0971 70 47.8516 66.7202 47.8516 62.6744C47.8516 61.3258 46.9334 60.2325 45.8008 60.2325Z" fill="#00B976"/>
<path d="M68.9918 4.19525C61.0422 -1.39842 52.98 -1.39842 45.0302 4.19525C44.0814 4.86285 43.7453 6.3042 44.2695 7.45872L50.495 21.1706H63.5272L69.7527 7.45872C70.2767 6.3042 69.9407 4.86285 68.9918 4.19525Z" fill="#00B976"/>
<path d="M51.8848 26.0465H62.1385V33.372H51.8848V26.0465Z" fill="#00B976"/>
<path d="M51.8848 63.8953C51.8848 67.2669 54.1801 70 57.0117 70C59.8432 70 62.1385 67.2669 62.1385 63.8953V38.2558H51.8848V63.8953Z" fill="#00B976"/>
<path d="M35.0433 18.5065C32.0738 14.9705 28.1255 13.0232 23.9258 13.0232C19.7261 13.0232 15.7778 14.9705 12.8082 18.5065C9.83855 22.0423 8.20312 26.7435 8.20312 31.7441C8.20312 36.7447 9.83855 41.446 12.8082 44.9818C15.7778 48.5178 19.7261 50.4651 23.9258 50.4651C28.1255 50.4651 32.0738 48.5178 35.0433 44.9818C38.013 41.446 39.6484 36.7447 39.6484 31.7441C39.6484 26.7435 38.013 22.0423 35.0433 18.5065ZM16.1919 36.4882C15.667 36.4882 15.1421 36.2498 14.7418 35.7729C13.9409 34.8192 13.9409 33.2732 14.7418 32.3196L24.4092 20.8087C25.21 19.855 26.5085 19.855 27.3094 20.8087C28.1103 21.7623 28.1103 23.3083 27.3094 24.2619L17.6421 35.7729C17.2415 36.2498 16.7167 36.4882 16.1919 36.4882ZM33.1099 31.1685L23.4425 42.6794C23.042 43.1562 22.5172 43.3947 21.9924 43.3947C21.4677 43.3947 20.9427 43.1564 20.5424 42.6794C19.7415 41.7258 19.7415 40.1798 20.5424 39.2261L30.2098 27.7152C31.0105 26.7616 32.3091 26.7616 33.11 27.7152C33.9108 28.6688 33.9108 30.2149 33.1099 31.1685Z" fill="#00B976"/>
<path d="M23.9258 3.2558C10.7331 3.2558 0 16.0357 0 31.7442C0 41.5546 4.18647 50.2226 10.5438 55.3489H23.9258C12.9772 55.3489 4.10156 44.7806 4.10156 31.7442C4.10156 18.7077 12.9772 8.13952 23.9258 8.13952C34.8744 8.13952 43.75 18.7077 43.75 31.7442C43.75 44.7806 34.8744 55.3489 23.9258 55.3489H37.3078C43.6651 50.2226 47.8516 41.5546 47.8516 31.7442C47.8516 16.0357 37.1185 3.2558 23.9258 3.2558Z" fill="#00B976"/>
</svg>
