<svg width="70" height="70" viewBox="0 0 70 70" fill="none" xmlns="http://www.w3.org/2000/svg">
<path d="M24.5427 8.76226V6.16099C24.5427 5.59274 25.0048 5.13025 25.5731 5.13025H27.2279C28.9648 5.13025 30.5497 4.07542 31.2649 2.44264C31.9154 0.958785 33.3819 0 35.0003 0C36.6187 0 38.0855 0.958785 38.7354 2.44231C39.4512 4.07509 41.0354 5.12992 42.7723 5.12992H44.4272C44.9954 5.12992 45.4576 5.59207 45.4576 6.16065V8.76192C45.4576 9.33016 44.9954 9.79266 44.4272 9.79266H25.5727C25.0048 9.79266 24.5427 9.3305 24.5427 8.76226ZM20.9311 57.3581H25.7558V52.5334H20.9311V57.3581ZM20.9311 28.3432H25.7558V23.5185H20.9311V28.3432ZM59.2108 15.5902V63.2979C59.2108 66.9931 56.2047 69.9997 52.5091 69.9997H17.4918C13.7962 69.9997 10.79 66.9931 10.79 63.2979V15.5902C10.79 11.895 13.7962 8.88842 17.4918 8.88842H21.2025C21.2701 11.243 23.2024 13.1392 25.5731 13.1392H44.4275C46.7982 13.1392 48.7305 11.243 48.7981 8.88842H52.5087C56.2047 8.88842 59.2108 11.895 59.2108 15.5902ZM31.7478 25.9023C31.7478 26.8262 32.4967 27.5755 33.421 27.5755H48.525C49.4493 27.5755 50.1983 26.8262 50.1983 25.9023C50.1983 24.9783 49.4493 24.229 48.525 24.229H33.421C32.4967 24.229 31.7478 24.9783 31.7478 25.9023ZM31.7478 40.5768C31.7478 41.5008 32.4967 42.2501 33.421 42.2501H46.8437C47.768 42.2501 48.517 41.5008 48.517 40.5768C48.517 39.6529 47.768 38.9036 46.8437 38.9036H33.421C32.4967 38.9036 31.7478 39.6525 31.7478 40.5768ZM29.1023 50.8601C29.1023 49.9361 28.3534 49.1868 27.4291 49.1868H19.2578C18.3335 49.1868 17.5845 49.9361 17.5845 50.8601V59.0314C17.5845 59.9553 18.3335 60.7046 19.2578 60.7046H27.4291C28.3534 60.7046 29.1023 59.9553 29.1023 59.0314V50.8601ZM29.1023 36.3525C29.1023 35.4285 28.3534 34.6792 27.4291 34.6792H19.2578C18.3335 34.6792 17.5845 35.4285 17.5845 36.3525V44.5238C17.5845 45.4477 18.3335 46.197 19.2578 46.197H27.4291C28.3534 46.197 29.1023 45.4477 29.1023 44.5238V36.3525ZM29.1023 21.8452C29.1023 20.9213 28.3534 20.172 27.4291 20.172H19.2578C18.3335 20.172 17.5845 20.9213 17.5845 21.8452V30.0165C17.5845 30.9405 18.3335 31.6898 19.2578 31.6898H27.4291C28.3534 31.6898 29.1023 30.9405 29.1023 30.0165V21.8452ZM51.0366 55.2511C51.0366 54.3271 50.2876 53.5778 49.3633 53.5778H33.421C32.4967 53.5778 31.7478 54.3271 31.7478 55.2511C31.7478 56.1751 32.4967 56.9244 33.421 56.9244H49.3636C50.2876 56.9244 51.0366 56.1751 51.0366 55.2511ZM20.9311 42.8505H25.7558V38.0258H20.9311V42.8505Z" fill="#00B976"/>
</svg>
