<svg width="70" height="70" viewBox="0 0 70 70" fill="none" xmlns="http://www.w3.org/2000/svg">
<path d="M51.543 41.0102C50.2573 41.6596 48.7246 42.0013 47.3047 42.0013C45.8847 42.0013 44.4888 41.6596 43.2031 41.0102C41.9174 41.6596 40.5215 42.0013 39.1016 42.0013C38.4087 42.0013 37.7225 41.9142 37.0508 41.7553V56.0006H53.5938V41.7553C52.8892 41.5887 52.2011 41.3426 51.543 41.0102Z" fill="#00B976"/>
<path d="M67.9492 65.3336H65.8984V41.7652C65.2355 41.9191 64.5498 42.0013 63.8477 42.0013C62.4277 42.0013 61.0318 41.6596 59.7461 41.0102C59.0879 41.3426 58.3998 41.5887 57.6953 41.7553V58.3339C57.6953 59.6235 56.7781 60.6671 55.6445 60.6671H35C33.8665 60.6671 32.9492 59.6235 32.9492 58.3339V41.7553C32.2775 41.9142 31.5913 42.0013 30.8984 42.0013C30.2055 42.0013 29.5194 41.9142 28.8477 41.7553V65.3336H24.7461V41.7553C24.0744 41.9142 23.3882 42.0013 22.6953 42.0013C21.2754 42.0013 19.7427 41.6596 18.457 41.0102C17.7989 41.3426 17.1108 41.5887 16.4062 41.7553V65.3336H12.3047V41.7553C11.6002 41.5887 10.9121 41.3426 10.2539 41.0102C8.9682 41.6596 7.5723 42.0013 6.15234 42.0013C5.45016 42.0013 4.76451 41.9191 4.10156 41.7652V65.3336H2.05078C0.917246 65.3336 0 66.3771 0 67.6668C0 68.9564 0.917246 70 2.05078 70C2.66383 70 53.0034 70 67.9492 70C69.0828 70 70 68.9564 70 67.6668C70 66.3771 69.0828 65.3336 67.9492 65.3336Z" fill="#00B976"/>
<path d="M0 28.0021V30.3353C0 34.1951 2.7598 37.3349 6.15234 37.3349C7.73377 37.3349 9.16289 36.6337 10.2539 35.5144C11.3449 36.6337 12.774 37.3349 14.3555 37.3349C15.9369 37.3349 17.366 36.6337 18.457 35.5144C19.548 36.6337 21.1139 37.3349 22.6953 37.3349C24.2767 37.3349 25.7059 36.6337 26.7969 35.5144C27.8879 36.6337 29.317 37.3349 30.8984 37.3349C32.4799 37.3349 33.909 36.6337 35 35.5144C36.091 36.6337 37.5201 37.3349 39.1016 37.3349C40.683 37.3349 42.1121 36.6337 43.2031 35.5144C44.2941 36.6337 45.7233 37.3349 47.3047 37.3349C48.8861 37.3349 50.452 36.6337 51.543 35.5144C52.634 36.6337 54.0631 37.3349 55.6445 37.3349C57.226 37.3349 58.6551 36.6337 59.7461 35.5144C60.8371 36.6337 62.2662 37.3349 63.8477 37.3349C67.2402 37.3349 70 34.1951 70 30.3353V28.0021H0Z" fill="#00B976"/>
<path d="M64.4104 4.75869L63.8697 4.58323C45.0741 -1.52541 24.9257 -1.53008 6.13033 4.58323L5.58961 4.75869C4.70832 5.04583 4.10156 5.96185 4.10156 7.00308V14.0027H65.8984V7.00308C65.8984 5.96185 65.2917 5.04583 64.4104 4.75869Z" fill="#00B976"/>
<path d="M67.1661 18.6691H2.83398L0.783203 23.3356H69.2169L67.1661 18.6691Z" fill="#00B976"/>
</svg>
