<svg width="70" height="70" viewBox="0 0 70 70" fill="none" xmlns="http://www.w3.org/2000/svg">
<g clip-path="url(#clip0)">
<path d="M44.0003 34.5764C42.2944 34.5764 40.9062 35.9645 40.9062 37.6705C40.9062 39.3767 42.2944 40.7649 44.0003 40.7649C45.7066 40.7649 47.0947 39.3767 47.0947 37.6705C47.0947 35.9645 45.7066 34.5764 44.0003 34.5764Z" fill="#00B976"/>
<path d="M25.9994 22.3372C24.2934 22.3372 22.9053 23.7253 22.9053 25.4315C22.9053 27.1375 24.2934 28.5256 25.9994 28.5256C27.7056 28.5256 29.0937 27.1375 29.0937 25.4315C29.0937 23.7253 27.7059 22.3372 25.9994 22.3372Z" fill="#00B976"/>
<path d="M65.3699 42.3972C64.9478 41.2875 63.884 40.554 62.6968 40.554H57.2202V5.53324C57.2202 2.47735 54.7429 0 51.687 0H18.3132C15.2573 0 12.7799 2.47735 12.7799 5.53324V40.554H7.3031C6.11589 40.554 5.05212 41.2875 4.63031 42.3972C4.20823 43.507 4.51569 44.762 5.40272 45.5508L31.3229 68.6015C33.4198 70.4663 36.5804 70.4663 38.6773 68.6015L64.5977 45.5508C65.4845 44.762 65.7919 43.5067 65.3699 42.3972ZM19.0068 25.4318C19.0068 21.576 22.1436 18.439 25.9994 18.439C29.8553 18.439 32.9922 21.576 32.9922 25.4318C32.9922 29.2877 29.8553 32.4244 25.9994 32.4244C22.1436 32.4244 19.0068 29.2874 19.0068 25.4318ZM29.9805 45.6441C29.6367 46.3207 28.9516 46.7105 28.2416 46.7105C27.9442 46.7105 27.6428 46.6422 27.3595 46.4984C26.3999 46.0106 26.0176 44.8369 26.5054 43.8773L39.9378 17.4584C40.4259 16.4991 41.5993 16.1168 42.5588 16.6044C43.5184 17.0922 43.9007 18.2659 43.4129 19.2255L29.9805 45.6441ZM44.0005 44.6635C40.1446 44.6635 37.0079 41.5266 37.0079 37.6707C37.0079 33.8149 40.1446 30.6782 44.0005 30.6782C47.8563 30.6782 50.9933 33.8149 50.9933 37.6707C50.9933 41.5263 47.8563 44.6635 44.0005 44.6635Z" fill="#00B976"/>
</g>
<defs>
<clipPath id="clip0">
<rect width="70" height="70" fill="white"/>
</clipPath>
</defs>
</svg>
