<svg width="70" height="70" viewBox="0 0 70 70" fill="none" xmlns="http://www.w3.org/2000/svg">
<path d="M69.9876 23.3334H0V26.2501C0 27.7972 0.614582 29.2809 1.70854 30.3749C2.80251 31.4688 4.28624 32.0834 5.83333 32.0834H14.5833C16.1304 32.0834 17.6142 31.4688 18.7081 30.3749C19.8021 29.2809 20.4167 27.7972 20.4167 26.2501C20.4167 27.7972 21.0312 29.2809 22.1252 30.3749C23.2192 31.4688 24.7029 32.0834 26.25 32.0834H43.75C45.2971 32.0834 46.7808 31.4688 47.8748 30.3749C48.9688 29.2809 49.5833 27.7972 49.5833 26.2501C49.5833 27.7972 50.1979 29.2809 51.2919 30.3749C52.3858 31.4688 53.8696 32.0834 55.4167 32.0834H64.1667C65.7138 32.0834 67.1975 31.4688 68.2915 30.3749C69.3854 29.2809 70 27.7972 70 26.2501V23.3334H69.9876Z" fill="#00B976"/>
<path d="M69.2819 20.4167L64.0531 2.11459C63.8788 1.50531 63.5108 0.969374 63.0049 0.587847C62.4989 0.20632 61.8824 -3.53394e-05 61.2487 4.53944e-09L47.8896 4.53944e-09L51.973 20.4167H69.2819Z" fill="#00B976"/>
<path d="M22.1081 4.53944e-09H8.74904C8.11534 -3.53394e-05 7.49886 0.20632 6.99288 0.587847C6.4869 0.969374 6.11894 1.50531 5.94467 2.11459L0.71582 20.4167H18.0248L22.1081 4.53944e-09Z" fill="#00B976"/>
<path d="M41.9427 0H28.0579L23.9746 20.4167H46.0261L41.9427 0Z" fill="#00B976"/>
<path d="M55.416 35.0001C53.2624 35.0019 51.1844 34.2063 49.5827 32.7667C47.981 34.2063 45.903 35.0019 43.7494 35.0001H26.2494C24.0958 35.0019 22.0178 34.2063 20.416 32.7667C18.8143 34.2063 16.7363 35.0019 14.5827 35.0001H5.83268C4.83843 34.998 3.8519 34.8254 2.91602 34.4897V67.0833C2.91602 67.8569 3.22331 68.5988 3.77029 69.1457C4.31727 69.6927 5.05913 70 5.83268 70H11.666V43.7501C11.666 42.9765 11.9733 42.2347 12.5203 41.6877C13.0673 41.1407 13.8091 40.8334 14.5827 40.8334H29.166C29.9396 40.8334 30.6814 41.1407 31.2284 41.6877C31.7754 42.2347 32.0827 42.9765 32.0827 43.7501V70H64.166C64.9396 70 65.6815 69.6927 66.2284 69.1457C66.7754 68.5988 67.0827 67.8569 67.0827 67.0833V34.4897C66.1468 34.8254 65.1603 34.998 64.166 35.0001H55.416ZM58.3327 52.5C58.3327 53.2736 58.0254 54.0155 57.4784 54.5624C56.9314 55.1094 56.1896 55.4167 55.416 55.4167H40.8327C40.0591 55.4167 39.3173 55.1094 38.7703 54.5624C38.2233 54.0155 37.916 53.2736 37.916 52.5V43.7501C37.916 42.9765 38.2233 42.2347 38.7703 41.6877C39.3173 41.1407 40.0591 40.8334 40.8327 40.8334H55.416C56.1896 40.8334 56.9314 41.1407 57.4784 41.6877C58.0254 42.2347 58.3327 42.9765 58.3327 43.7501V52.5Z" fill="#00B976"/>
</svg>
