<svg width="70" height="70" viewBox="0 0 70 70" fill="none" xmlns="http://www.w3.org/2000/svg">
<path d="M55.6093 54.8075H55.3793C55.3682 54.8075 55.3577 54.8045 55.3466 54.8045C55.3288 54.805 55.3114 54.8075 55.2934 54.8075H50.5215V58.7755H55.6095C56.5766 58.7755 57.394 57.8668 57.394 56.7915C57.3936 55.7157 56.5764 54.8075 55.6093 54.8075Z" fill="#00B976"/>
<path d="M55.4457 49.3322C55.4457 48.267 54.6285 47.3676 53.6611 47.3676H50.5215V50.8395H54.7702C55.0915 50.5915 55.4457 50.0402 55.4457 49.3322Z" fill="#00B976"/>
<path d="M62.0335 36.2077H50.0645C54.5003 36.2077 58.0312 32.3288 58.0312 27.6417V8.43635C58.0312 3.74872 54.5003 0 50.0645 0H31.8901C27.4543 0 23.7671 3.74847 23.7671 8.43635V27.6414C23.7671 29.3819 24.3043 31.0011 25.1569 32.3499L24.8347 31.9886C23.32 30.3883 21.3094 29.5066 19.1557 29.5066C17.0017 29.5066 14.9865 30.3883 13.4718 31.9886L2.35186 43.7419C-0.784736 47.0564 -0.783562 52.4498 2.35303 55.7645L13.476 67.5181C14.9907 69.1184 17.0114 70 19.1651 70C21.3188 70 23.3392 69.1184 24.8539 67.5181L35.9377 55.7645C37.0889 54.5483 37.8481 53.0517 38.0828 51.4804V61.3692C38.0828 66.0564 41.7699 69.9353 46.2058 69.9353H62.0333C66.4691 69.9353 70 66.0564 70 61.3692V44.6441C70.0002 39.9562 66.4694 36.2077 62.0335 36.2077ZM41.9844 7.07088C44.7005 7.07088 47.2612 8.18066 49.1952 10.1961C49.9333 10.9654 49.942 12.2213 49.2137 13.0017C48.4853 13.7819 47.2966 13.7908 46.5585 13.0216C45.3318 11.7434 43.7073 11.0391 41.9844 11.0391C38.3926 11.0391 35.4705 14.1269 35.4705 17.9225C35.4705 21.7181 38.3926 24.8059 41.9844 24.8059C43.888 24.8059 45.6911 23.9292 46.9314 22.4005C47.6064 21.5688 48.7918 21.4725 49.5787 22.186C50.3658 22.899 50.4569 24.1516 49.7819 24.9832C47.8275 27.3925 44.9854 28.7738 41.9842 28.7738C36.3219 28.7738 31.7152 23.9059 31.7152 17.9225C31.7155 11.9388 36.3221 7.07088 41.9844 7.07088ZM31.1576 50.4403C30.8199 51.4759 29.7516 52.0265 28.7711 51.6696L26.0029 50.662L20.0578 56.9442L20.9872 59.9299C21.3113 60.9707 20.7755 62.0921 19.7903 62.4346C19.5955 62.5023 19.3977 62.5343 19.2033 62.5343C18.4143 62.5343 17.68 62.0048 17.42 61.1698L12.343 44.8606C12.1202 44.1446 12.3003 43.357 12.8081 42.8278C13.3157 42.2983 14.0637 42.1192 14.738 42.3648L29.9938 47.9181C30.9746 48.2753 31.4956 49.4044 31.1576 50.4403ZM38.0828 44.6438V48.0268C37.8481 46.456 37.0886 44.9588 35.9375 43.7421L27.4146 34.7478C28.6911 35.6488 30.243 36.2077 31.8901 36.2077H46.206C41.7699 36.2077 38.0828 39.9562 38.0828 44.6438ZM55.6092 62.7434H48.7218C47.685 62.7434 46.7662 61.7901 46.7662 60.6944V45.3186C46.7662 44.223 47.685 43.3996 48.7218 43.3996H53.6608C56.7153 43.3996 59.2004 46.0284 59.2004 49.2997C59.2004 50.1769 59.015 51.0094 58.6695 51.7839C60.1626 52.851 61.1488 54.7001 61.1488 56.7674C61.1485 60.0486 58.6634 62.7434 55.6092 62.7434Z" fill="#00B976"/>
<path d="M18.7445 52.7216L22.0541 49.2246L17.0938 47.4189L18.7445 52.7216Z" fill="#00B976"/>
</svg>
